<?xml version="1.0" encoding="utf-8"?>
<!-- Generator: Adobe Illustrator 21.0.0, SVG Export Plug-In . SVG Version: 6.00 Build 0)  -->
<!DOCTYPE svg PUBLIC "-//W3C//DTD SVG 1.1//EN" "http://www.w3.org/Graphics/SVG/1.1/DTD/svg11.dtd">
<svg version="1.1" id="Layer_1" xmlns="http://www.w3.org/2000/svg" xmlns:xlink="http://www.w3.org/1999/xlink" x="0px" y="0px"
	 viewBox="0 0 500 500" style="enable-background:new 0 0 500 500;" xml:space="preserve">
<style type="text/css">
	.st0{fill:#EC1C24;}
	.st1{fill:#646464;}
</style>
<g>
	<path class="st0" d="M200.1,377.7c-15.1,20.8-30.1,41.6-45.5,62.8c-10.6,3.1-11.1,7-48.9,0c-22.6-28.6-28.1-62.8-39.3-95.1
		c-1.4-0.4-2.9-11.6-4.9-12.2c0-10.8,0-10.8,0-21.3c7.6-5.2,14.6-11.7,22.9-15.1c8.9-3.6,18.9-4.7,28.5-5.6c2.5-0.2,6.5,4.1,8,7.1
		c7,13.9,13.1,28.2,20,42.2c1.6,3.2,5.1,7.6,7.9,7.7c4,0.1,9.7-2.1,12-5.3c10.5-14.7,20-30,29.9-45.1c0.8-1,1.7-1.9,2.3-2.9
		c6-11,11.1-22.7,18.1-33c7-10.1,16.4-18.6,23.9-28.3c10.5-13.6,20.4-27.8,30.5-41.7c12.8-17.7,25.4-35.6,38.3-53.3
		c4.4-6.1,9.4-11.8,14.1-17.8c1.8-2.4,3.4-5,5-7.5c4.3-5.2,8.7-10.4,13-15.6c12-14.8,27-25.3,45.1-30.9c0.5-1.8,11.6-3.2,12.1-5.1
		c12.7,0,14.9,0,27.7,0c3.2,8.8-0.2,15.5-5.4,22.2c-6,7.6-14,16.3-19.6,24.2c-0.9,0.1,0.4-0.5,0,0c-4.7,5.8-9.3,11.6-13.8,17.5
		C367,144.7,352,164,337.2,183.4c-16,21-31.8,42.2-47.6,63.4c-4.4,6-8.3,12.3-12.6,18.4c-8.8,12.6-17.7,25.2-26.6,37.8
		c-16.5,23.4-31,43.9-47.3,67.3C202.3,371.5,200.4,376.2,200.1,377.7z"/>
	<path class="st1" d="M322.8,113.2c-1.7,2.5-3.2,5.1-5,7.5c-4.6,6-9.6,11.7-14.1,17.8c-12.9,17.7-25.5,35.6-38.3,53.3
		c-10.1,14-20,28.1-30.5,41.7c-7.6,9.8-17,18.2-23.9,28.3c-7.1,10.3-12.1,22-18.1,33c-0.6,1.1-1.5,2-2.3,2.9
		c-13.7-35.1-33.3-65.8-64.9-87.7c-6.6-4.6-13.3-9.2-19.5-14.4c-16.6-13.7-26.7-31.6-21.1-52.9c9.4-36.2,40.8-54.8,77.4-39.3
		c11.6,4.9,21.9,13,32.4,20.2c1.9,1.3,3.1,5,3.1,7.7c0.2,29.3,0,58.6,0.2,88c0.1,12.5,2.6,24.2,13.8,32c1.3,0.9,2.6,1.8,6.3,4.4
		c1.5-5.7,4.7-10.7,3.4-14.2c-10.6-28.5-6.7-57.8-5.6-86.9c0.5-13.2,16.7-28.4,31.3-31.3c10.4-2.1,26,6.7,32.7,17.9
		c2.2,3.7,5.1,7,9.3,12.7c4.7-6.3,10.5-10.7,11.2-15.7c1.4-10.6,7.4-16.5,15.7-21.3C318.5,115.7,320.6,114.4,322.8,113.2z"/>
	<path class="st1" d="M203.2,370.3C204.3,365.7,202.3,371.5,203.2,370.3c16.4-23.4,30.9-43.9,47.3-67.3
		c8.9-12.6,17.8-25.2,26.6-37.8c4.3-6.1,8.1-12.5,12.6-18.4c15.8-21.2,31.6-42.3,47.6-63.4c14.8-19.4,29.7-38.6,44.6-57.9
		c4.5-5.9,9.1-11.7,13.8-17.5c0.4-0.5,0,0,2.7-0.5c8.6,12.9,19.7,25,20.3,41.2c0.9,23.5-11.6,40.2-30.4,53.6
		c-13.8,9.9-27,20.9-38.9,33c-8.2,8.3-14.5,18.8-20.3,29.1c-6.6,11.5-13.4,23.3-17,35.9c-4.4,15.5-6.7,31.8-7.9,47.9
		c-1.4,19.2-6,36.2-21.1,49.5c-11.3,9.9-33.2,13.4-47,7.8c-11.9-4.8-21.4-11.3-27.7-22.7C207,380.2,206,371.9,203.2,370.3z"/>
</g>
</svg>
