<?xml version="1.0" encoding="utf-8"?>
<!-- Generator: Adobe Illustrator 21.0.0, SVG Export Plug-In . SVG Version: 6.00 Build 0)  -->
<!DOCTYPE svg PUBLIC "-//W3C//DTD SVG 1.1//EN" "http://www.w3.org/Graphics/SVG/1.1/DTD/svg11.dtd">
<svg version="1.1" id="Layer_1" xmlns="http://www.w3.org/2000/svg" xmlns:xlink="http://www.w3.org/1999/xlink" x="0px" y="0px"
	 viewBox="0 0 500 500" style="enable-background:new 0 0 500 500;" xml:space="preserve">
<style type="text/css">
	.st0{fill:#393939;}
	.st1{fill:#809B97;}
</style>
<g>
	<path class="st0" d="M419.4,252.2c-55.6,55.2-111.1,110.5-166.7,165.7c-0.1,0.1-0.4,0-0.7,0c-0.1-0.1-0.4-0.3-0.4-0.5
		c0-18.3,0-36.6,0-55.5c18.1-18.1,36.5-36.6,55-55c18.3-18.1,36.7-36,54.6-53.7c-36.9-36.9-73.6-73.6-109.9-109.9
		c0-20.4,0-39.5,0-58.6c6.5,6.2,12.7,12,18.6,17.9c6.3,6.3,12.6,12.6,19,19c6.2,6.2,12.3,12.3,18.5,18.5s12.3,12.3,18.5,18.5
		c6.3,6.3,12.6,12.6,19,19c6.2,6.2,12.3,12.3,18.5,18.5c6.2,6.2,12.3,12.3,18.5,18.5c6.3,6.3,12.6,12.6,19,19
		C406.9,239.7,413.1,245.9,419.4,252.2z"/>
	<path class="st1" d="M244.3,85.9c0,18,0,36.8,0,56.3c-1.3,1.3-3.1,3-4.9,4.8c-33.4,33.4-66.8,66.8-100.2,100.2
		c-1.6,1.6-4.6,2.8-3.3,6.2c36,36,72.1,72.1,108.2,108.2c0,18.9,0,37.5,0,55.6c-55.2-55.2-110.6-110.6-165.6-165.6
		C133.7,196.5,189.1,141.1,244.3,85.9z"/>
	<path class="st1" d="M244.3,151.7c0,20.7,0,40.6,0,60.5c-13.2,13.7-27.6,26.4-39.6,41.5c13.4,12.4,25.3,26.7,39.5,38
		c0,20.1,0,40,0,59.9c-2.6,0.9-3.8-1.3-4.4-2.5c-1.7-3.3-4.4-5.6-7-8.1c-17-17.1-34.1-34-51-51.1c-12.3-12.5-24.3-25.2-36.4-37.8
		c3.6-3.6,7.3-7,10.7-10.8c25.5-28.4,53.7-54.2,80.3-81.7c1-1.1,1.7-2.5,2.6-3.7c0.8-1.1,1.8-2,2.8-3
		C242.2,152.5,242.9,152.3,244.3,151.7z"/>
	<path class="st1" d="M236.2,79.3c0,1.3,0.1,1.6,0,1.7c-13.8,13.4-27.6,26.8-42,40.9c-50.5,0-102.3,0-154.4,0
		c-6.3-6.9-12.7-13.9-19.2-20.8C14,94.2,6.8,87.8,0.6,80.8c0.3-0.7,0.3-0.9,0.4-1.1c0.1-0.2,0.3-0.5,0.5-0.5
		C79.7,79.3,157.8,79.3,236.2,79.3z"/>
	<path class="st0" d="M251.6,213.6c0-21.4,0-41.3,0-61.9c2,2.1,3.6,3.6,5.1,5.2c19.9,19.9,40,39.8,59.8,59.9
		c11,11.2,21.6,22.7,32.9,34.7c-0.5,0.9-1.1,2.2-1.9,3.5c-0.2,0.4-0.6,0.7-1,1c-31.4,32-62.8,64-94.1,95.9c-0.4-0.2-0.6-0.2-0.8-0.3
		c-0.2-0.1-0.3-0.4-0.3-0.5c0-19.5,0-39,0-58.2c13.6-13.3,27-26.4,40.1-39.3C277.5,239.5,264.1,226.1,251.6,213.6z"/>
	<path class="st1" d="M0.9,420.4c12-14.8,25.9-27.6,39.1-41c0.2,0,0.5,0,0.7,0c51.6,0,103.2,0,154.1,0c13.9,13.9,27.5,27.5,41,41
		C157.7,420.4,79.4,420.4,0.9,420.4z"/>
	<path class="st0" d="M304.3,379.3c51.9,0,103.5,0,154.6,0c13.8,13.8,27.4,27.4,40.7,40.7c-5.2,1-207.5,1.4-235,0.3
		c2.5-2.5,4.7-4.6,6.7-6.8c2.1-2.3,3.7-5,5.9-7.2C286.1,397.4,295.1,388.5,304.3,379.3z"/>
	<path class="st1" d="M47.6,129.1c46.9,0,93.5,0,140,0c-13.6,13.6-27.1,27.1-41,41c-19.5,0-39.6,0-58.3,0
		c-14.1-13.7-27.4-26.6-40.7-39.5C47.5,130.4,47.6,130.1,47.6,129.1z"/>
	<path class="st1" d="M86.7,331.2c20.4,0,40.6,0,60.7,0c13.5,13.5,27,27,40.4,40.4c-0.1,0.2-0.1,0.4-0.2,0.5
		c-0.1,0.2-0.4,0.3-0.5,0.3c-46.1,0-92.2,0-138.3,0c-0.4,0-0.8-0.4-1-0.5C59.5,357.3,73.5,344.9,86.7,331.2z"/>
	<path class="st0" d="M312,372.2c12-14.9,25.9-27.6,39.1-41c20.2,0,40.4,0,59.7,0c13.9,13.9,27.5,27.5,41,41
		C405.4,372.2,358.7,372.2,312,372.2z"/>
</g>
</svg>
