<?xml version="1.0" encoding="utf-8"?>
<!-- Generator: Adobe Illustrator 21.0.0, SVG Export Plug-In . SVG Version: 6.00 Build 0)  -->
<!DOCTYPE svg PUBLIC "-//W3C//DTD SVG 1.1//EN" "http://www.w3.org/Graphics/SVG/1.1/DTD/svg11.dtd">
<svg version="1.1" id="Layer_1" xmlns="http://www.w3.org/2000/svg" xmlns:xlink="http://www.w3.org/1999/xlink" x="0px" y="0px"
	 viewBox="0 0 500 500" style="enable-background:new 0 0 500 500;" xml:space="preserve">
<style type="text/css">
	.st0{fill:#1B1B1B;}
	.st1{fill:#F6F6F6;}
	.st2{fill:#AAAAAA;}
	.st3{fill:#D6D6D6;}
</style>
<g>
	<path class="st0" d="M135,247.9c37.2-37.2,74.1-74.1,110.9-110.9c0-19.7,0-39.4,0-58.8c-56.6,56.6-113.2,113.2-170,170
		c7.9,9.2,167.4,168,170,169c0-19.5,0-39,0-58.5C209,321.9,172.2,285,135,247.9z"/>
	<path class="st0" d="M358.1,321.5c-13.3,11.9-97.3,96.7-98.3,99.3c18.6,0,37.1,0,56,0c14.1-14.1,28.4-28.4,43-43
		c14.4,14.5,28.7,28.8,42.8,43c18.9,0,37.6,0,55.7,0C424.5,387.9,391.4,354.8,358.1,321.5z"/>
	<path class="st0" d="M238.1,420.8c-33.3-33.3-66.4-66.4-100.1-100.1c-32.4,32.7-65.1,65.6-97.7,98.6c-0.2,0.2-0.4,0.6-0.6,0.9
		c0,0.1,0,0.2,0,0.3c0,0.1,0.1,0.2,0.2,0.4c18.5,0,37.1,0,55.9,0c14.2-14.2,28.4-28.5,43-43.1c14.4,14.4,28.7,28.7,42.9,43
		C200.4,420.8,219.2,420.8,238.1,420.8z"/>
	<path class="st1" d="M248.3,201.1c14.2,14.2,28.6,28.6,42.4,42.5c19.4,0,38,0,56.6,0c0.2-0.3,0.4-0.5,0.6-0.8
		c-5.2-5.7-10.8-11-16.3-16.5c-5.4-5.5-10.9-10.9-16.4-16.4c-5.6-5.6-11.1-11.1-16.7-16.7c-5.6-5.6-11.1-11.1-16.7-16.7
		c-5.5-5.5-10.9-10.9-16.4-16.4c-5.5-5.5-11.1-11.1-17-17c-32.9,33.2-65.6,66.1-98.3,99c-0.2,0.2-0.4,0.6-0.6,0.9c0,0.1,0,0.2,0,0.3
		c0,0.1,0.1,0.2,0.2,0.4c18.4,0,36.8,0,55.8,0C219.7,229.7,234,215.5,248.3,201.1z"/>
	<path class="st0" d="M290.1,251.9c-13.7,13.7-28,28.1-42.5,42.5c-14.1-14.1-28.3-28.4-42.4-42.5c-18.7,0-37,0-55.4,0
		c-0.3,0.3-0.5,0.7-0.8,1c33.2,33.1,66.3,66.2,99.8,99.7c1.4-1.6,2.1-2.6,3-3.4c31-31.1,62.1-62.1,93.2-93.2c0.7-0.7,1.4-1.3,2-2.1
		c0.4-0.5,0.4-1.2,0.7-2.1C328.6,251.9,310,251.9,290.1,251.9z"/>
	<path class="st1" d="M292.9,317.5c-13.8,13.8-27.5,27.4-41,41c0,19.6,0,39.2,0,58.8c0.4,0,0.8,0.1,0.9,0
		c32.4-32.3,64.7-64.6,97-96.9c0.7-0.7,1.2-1.4,1.8-2.1c0.1-0.1,0-0.2,0-0.3c0-0.1-0.1-0.2-0.1-0.4
		C332,317.5,312.5,317.5,292.9,317.5z"/>
	<path class="st0" d="M291.5,176.5c19.6,0,39.1,0,58.2,0c-32.6-32.6-65.4-65.4-97.8-97.8c0,18.9,0,38.7,0,58.1
		C265.1,150.2,278.3,163.4,291.5,176.5z"/>
	<path class="st2" d="M135,247.9c37.2,37.2,74,74,110.9,110.9c0,19.4,0,38.9,0,58.5c-2.5-1-162.1-159.8-170-169
		c56.7-56.7,113.4-113.4,170-170c0,19.3,0,39,0,58.8C209.1,173.8,172.2,210.7,135,247.9z"/>
	<path class="st2" d="M358.1,321.5c33.3,33.3,66.4,66.4,99.2,99.2c-18.1,0-36.9,0-55.7,0c-14.1-14.2-28.4-28.5-42.8-43
		c-14.6,14.6-28.9,28.9-43,43c-18.8,0-37.4,0-56,0C260.8,418.3,344.8,333.5,358.1,321.5z"/>
	<path class="st3" d="M238.1,420.8c-18.9,0-37.7,0-56.4,0c-14.2-14.3-28.5-28.6-42.9-43c-14.6,14.6-28.8,28.9-43,43.1
		c-18.8,0-37.3,0-55.9,0c-0.1-0.2-0.1-0.3-0.2-0.4c0-0.1-0.1-0.3,0-0.3c0.2-0.3,0.3-0.6,0.6-0.9c32.7-33,65.3-65.9,97.7-98.6
		C171.6,354.4,204.7,387.5,238.1,420.8z"/>
	<path class="st3" d="M290.1,251.9c19.9,0,38.6,0,57.5,0c-0.3,0.9-0.3,1.6-0.7,2.1c-0.5,0.8-1.3,1.4-2,2.1
		c-31.1,31.1-62.1,62.1-93.2,93.2c-0.8,0.8-1.6,1.8-3,3.4c-33.5-33.4-66.7-66.6-99.8-99.7c0.3-0.3,0.5-0.7,0.8-1
		c18.4,0,36.7,0,55.4,0c14.1,14.1,28.4,28.4,42.4,42.5C262,279.9,276.4,265.6,290.1,251.9z"/>
	<path class="st3" d="M291.5,176.5c-13.1-13.1-26.3-26.3-39.7-39.7c0-19.5,0-39.2,0-58.1c32.4,32.4,65.2,65.2,97.8,97.8
		C330.6,176.5,311,176.5,291.5,176.5z"/>
</g>
</svg>
